<?xml version="1.0" encoding="UTF-8"?>
<svg id="_9" data-name="9" xmlns="http://www.w3.org/2000/svg" viewBox="0 0 354.52 357.67">
  <defs>
    <style>
      .cls-1 {
        fill: #425f9c;
      }

      .cls-1, .cls-2 {
        fill-rule: evenodd;
        stroke-width: 0px;
      }

      .cls-2 {
        fill: #fefefe;
      }
    </style>
  </defs>
  <path class="cls-1" d="m29.76,0h294.99c16.38,0,29.76,13.39,29.76,29.73v294.99c0,16.38-13.39,29.76-29.76,29.76H29.76c-16.38,0-29.76-13.39-29.76-29.76V29.73C0,13.39,13.39,0,29.76,0h0Z"/>
  <path class="cls-2" d="m237.32,143.62v-24.47c0-11.91,7.94-14.68,13.54-14.68h34.3v-52.41l-47.24-.22c-52.44,0-64.38,39.12-64.38,64.13v27.65h-30.33v61.13h30.58v152.91h61.17v-152.91h51.05l-.09-61.13h-48.6Z"/>
</svg>