<?xml version="1.0" encoding="UTF-8"?>
<!DOCTYPE svg PUBLIC "-//W3C//DTD SVG 1.1//EN" "http://www.w3.org/Graphics/SVG/1.1/DTD/svg11.dtd">
<svg xmlns="http://www.w3.org/2000/svg" version="1.1" width="660px" height="159px" style="shape-rendering:geometricPrecision; text-rendering:geometricPrecision; image-rendering:optimizeQuality; fill-rule:evenodd; clip-rule:evenodd" xmlns:xlink="http://www.w3.org/1999/xlink">
<g><path style="opacity:0.969" fill="#fefffe" d="M 268.5,1.5 C 271.833,1.5 275.167,1.5 278.5,1.5C 278.5,52.8333 278.5,104.167 278.5,155.5C 274.167,155.5 269.833,155.5 265.5,155.5C 265.5,104.5 265.5,53.5 265.5,2.5C 266.791,2.73731 267.791,2.40397 268.5,1.5 Z"/></g>
<g><path style="opacity:0.941" fill="#fefffe" d="M -0.5,121.5 C -0.5,120.5 -0.5,119.5 -0.5,118.5C 3.52362,117.962 7.52362,117.295 11.5,116.5C 12.5551,100.182 12.7218,83.8491 12,67.5C 8.5951,66.4177 5.0951,65.5844 1.5,65C -0.0586209,62.3583 0.274712,60.025 2.5,58C 5.85357,57.5448 9.1869,57.0448 12.5,56.5C 11.4361,44.4201 14.2694,33.4201 21,23.5C 31.0928,15.0131 42.5928,12.5131 55.5,16C 73.525,18.0826 77.525,26.916 67.5,42.5C 63.5215,44.415 60.6881,43.415 59,39.5C 58.1239,35.3 57.2905,31.1333 56.5,27C 48.8158,24.9932 41.1492,24.6599 33.5,26C 29.9897,28.1692 27.823,31.3359 27,35.5C 25.7766,42.7907 24.9433,50.124 24.5,57.5C 39.2898,57.8867 53.9565,56.8867 68.5,54.5C 69.086,54.7093 69.586,55.0426 70,55.5C 70.0038,75.8495 70.1704,96.1828 70.5,116.5C 74.007,116.307 77.3404,116.973 80.5,118.5C 81.7059,120.484 81.7059,122.484 80.5,124.5C 68.8523,125.499 57.1857,125.832 45.5,125.5C 45.6816,123.409 45.3482,121.409 44.5,119.5C 48.3452,117.872 52.3452,116.872 56.5,116.5C 57.3884,100.185 57.7217,83.8522 57.5,67.5C 46.5,67.5 35.5,67.5 24.5,67.5C 24.3171,83.849 24.6504,100.182 25.5,116.5C 29.007,116.307 32.3404,116.973 35.5,118.5C 36.3635,120.771 36.3635,123.105 35.5,125.5C 23.8333,125.5 12.1667,125.5 0.5,125.5C 0.767809,123.901 0.434475,122.568 -0.5,121.5 Z"/></g>
<g><path style="opacity:0.959" fill="#fefffe" d="M 108.5,14.5 C 109.822,14.33 110.989,14.6634 112,15.5C 111.454,49.174 111.62,82.8407 112.5,116.5C 116.007,116.307 119.34,116.973 122.5,118.5C 123.706,120.484 123.706,122.484 122.5,124.5C 110.852,125.499 99.1857,125.832 87.5,125.5C 87.3259,123.139 86.9926,120.806 86.5,118.5C 90.5236,117.962 94.5236,117.295 98.5,116.5C 99.4422,87.1828 99.7755,57.8495 99.5,28.5C 95.5236,27.7048 91.5236,27.0381 87.5,26.5C 86.6669,24.2478 86.6669,22.0811 87.5,20C 94.44,17.4526 101.44,15.6193 108.5,14.5 Z"/></g>
<g><path style="opacity:0.944" fill="#fefffe" d="M 319.5,14.5 C 320.822,14.33 321.989,14.6634 323,15.5C 322.946,39.1659 322.946,62.8326 323,86.5C 332.835,82.5008 340.335,75.8341 345.5,66.5C 342.833,65.5 340.167,64.5 337.5,63.5C 338.348,61.5914 338.682,59.5914 338.5,57.5C 349.082,57.1801 359.582,57.5134 370,58.5C 370.808,60.5787 370.641,62.5787 369.5,64.5C 366.548,65.6544 363.548,66.6544 360.5,67.5C 354.316,73.8498 348.316,80.3498 342.5,87C 346.937,95.098 351.77,102.931 357,110.5C 361.324,116.921 367.157,119.254 374.5,117.5C 376.339,119.527 376.839,121.86 376,124.5C 360.704,132.261 349.038,128.594 341,113.5C 337.725,106.616 334.725,99.6161 332,92.5C 329.264,93.7272 326.431,94.7272 323.5,95.5C 322.663,102.478 322.663,109.478 323.5,116.5C 327.007,116.307 330.34,116.973 333.5,118.5C 334.706,120.484 334.706,122.484 333.5,124.5C 321.852,125.499 310.186,125.832 298.5,125.5C 298.326,123.139 297.993,120.806 297.5,118.5C 301.524,117.962 305.524,117.295 309.5,116.5C 310.442,87.1828 310.776,57.8495 310.5,28.5C 306.524,27.7048 302.524,27.0381 298.5,26.5C 297.667,24.2478 297.667,22.0811 298.5,20C 305.44,17.4526 312.44,15.6193 319.5,14.5 Z"/></g>
<g><path style="opacity:0.945" fill="#fefffe" d="M 527.5,37.5 C 530.167,37.5 532.833,37.5 535.5,37.5C 535.5,44.1667 535.5,50.8333 535.5,57.5C 543.167,57.5 550.833,57.5 558.5,57.5C 558.784,60.7766 558.451,63.9433 557.5,67C 550.174,67.4997 542.841,67.6663 535.5,67.5C 535.333,79.1714 535.5,90.8381 536,102.5C 536.26,106.25 536.927,109.916 538,113.5C 539.463,115.885 541.629,116.885 544.5,116.5C 548.659,116.127 552.659,115.127 556.5,113.5C 559.131,115.888 559.797,118.721 558.5,122C 549.778,127.049 540.445,128.716 530.5,127C 526.99,124.831 524.823,121.664 524,117.5C 523.667,100.833 523.333,84.1667 523,67.5C 519.595,66.4177 516.095,65.5844 512.5,65C 511.577,62.9592 511.244,60.7925 511.5,58.5C 515.5,57.8333 519.5,57.1667 523.5,56.5C 524.675,50.1337 526.008,43.8004 527.5,37.5 Z"/></g>
<g><path style="opacity:0.951" fill="#fefffe" d="M 175.5,54.5 C 184.094,54.2092 190.26,57.8758 194,65.5C 204.363,55.1248 216.197,52.6248 229.5,58C 232.807,60.7783 234.974,64.2783 236,68.5C 236.321,84.511 236.821,100.511 237.5,116.5C 241.007,116.307 244.34,116.973 247.5,118.5C 248.363,120.771 248.363,123.105 247.5,125.5C 235.833,125.5 224.167,125.5 212.5,125.5C 212.007,123.194 211.674,120.861 211.5,118.5C 215.524,117.962 219.524,117.295 223.5,116.5C 224.95,102.151 224.783,87.8178 223,73.5C 221.163,68.4067 217.496,65.74 212,65.5C 206.06,66.4705 200.727,68.8038 196,72.5C 195.339,87.1794 195.505,101.846 196.5,116.5C 203.825,115.356 206.825,118.356 205.5,125.5C 194.828,125.667 184.161,125.5 173.5,125C 172.577,122.959 172.244,120.792 172.5,118.5C 175.833,117.833 179.167,117.167 182.5,116.5C 183.95,102.151 183.783,87.8178 182,73.5C 180.283,68.552 176.783,65.8854 171.5,65.5C 166.015,66.3274 161.015,68.3274 156.5,71.5C 155.333,86.5011 155.333,101.501 156.5,116.5C 160.007,116.307 163.34,116.973 166.5,118.5C 166.838,120.655 166.838,122.989 166.5,125.5C 154.833,125.5 143.167,125.5 131.5,125.5C 131.326,123.139 130.993,120.806 130.5,118.5C 134.524,117.962 138.524,117.295 142.5,116.5C 143.55,100.849 143.716,85.1825 143,69.5C 139.646,68.1888 136.146,67.3555 132.5,67C 131.158,64.985 130.658,62.8183 131,60.5C 138.123,56.7745 145.623,55.4412 153.5,56.5C 154.025,58.9879 154.858,61.3213 156,63.5C 161.661,58.4567 168.161,55.4567 175.5,54.5 Z"/></g>
<g><path style="opacity:0.931" fill="#fefffe" d="M 409.5,54.5 C 431.24,55.9107 441.907,67.5773 441.5,89.5C 441.963,104.742 435.963,116.576 423.5,125C 408.674,130.881 395.84,128.048 385,116.5C 379.323,104.689 377.99,92.356 381,79.5C 385.161,64.8259 394.661,56.4926 409.5,54.5 Z M 405.5,65.5 C 413.424,64.8785 419.59,67.8785 424,74.5C 431.453,87.7073 431.12,100.707 423,113.5C 412.947,119.658 404.28,117.991 397,108.5C 389.598,94.5319 390.431,81.0319 399.5,68C 401.611,67.1553 403.611,66.322 405.5,65.5 Z"/></g>
<g><path style="opacity:0.945" fill="#fefffe" d="M 466.5,55.5 C 469.247,55.1866 471.914,55.52 474.5,56.5C 475.395,59.8075 476.229,63.1409 477,66.5C 484.552,55.7301 494.718,52.3968 507.5,56.5C 507.666,62.5092 507.499,68.5092 507,74.5C 506.73,77.3617 505.896,80.0284 504.5,82.5C 502.167,83.8333 499.833,83.8333 497.5,82.5C 496.533,77.1982 495.867,71.8648 495.5,66.5C 486.99,66.1681 480.823,69.8347 477,77.5C 476.367,90.5127 476.534,103.513 477.5,116.5C 482.945,116.364 488.278,117.031 493.5,118.5C 494.769,120.695 494.769,122.861 493.5,125C 479.837,125.5 466.171,125.667 452.5,125.5C 452.326,123.139 451.993,120.806 451.5,118.5C 455.524,117.962 459.524,117.295 463.5,116.5C 464.55,100.849 464.716,85.1825 464,69.5C 460.625,68.1298 457.125,67.1298 453.5,66.5C 451.744,64.4457 451.41,62.279 452.5,60C 457.254,58.3583 461.921,56.8583 466.5,55.5 Z"/></g>
<g><path style="opacity:0.926" fill="#fefffe" d="M 590.5,55.5 C 616.651,53.4017 627.484,65.4017 623,91.5C 608.573,92.1582 594.073,92.1582 579.5,91.5C 579.286,101.235 582.953,109.069 590.5,115C 601.006,117.34 611.172,116.173 621,111.5C 624.467,114.521 624.3,117.354 620.5,120C 609.017,127.399 596.684,129.399 583.5,126C 574.28,121.743 568.78,114.577 567,104.5C 563.303,86.7587 568.136,71.9254 581.5,60C 584.592,58.4541 587.592,56.9541 590.5,55.5 Z M 590.5,65.5 C 603.052,63.8865 609.719,69.3865 610.5,82C 600.331,83.4741 589.998,83.9741 579.5,83.5C 580.175,75.4494 583.842,69.4494 590.5,65.5 Z"/></g>
<g><path style="opacity:0.928" fill="#fefffe" d="M 641.5,108.5 C 653.155,106.323 657.989,110.99 656,122.5C 654.063,126.386 650.897,128.053 646.5,127.5C 638.193,126.595 635.026,121.928 637,113.5C 638.025,111.313 639.525,109.646 641.5,108.5 Z"/></g>
</svg>
